<?xml version="1.0" standalone="no"?><!DOCTYPE svg PUBLIC "-//W3C//DTD SVG 1.1//EN" "http://www.w3.org/Graphics/SVG/1.1/DTD/svg11.dtd"><svg height="540" node-id="1" sillyvg="true" template-height="540" template-width="860" version="1.1" viewBox="0 0 860 540" width="860" xmlns="http://www.w3.org/2000/svg" xmlns:xlink="http://www.w3.org/1999/xlink"><defs node-id="80"></defs><path d="M 781.96 540.49 C 820.35 540.49 848.33 514.51 856.06 476.90 C 866.05 428.25 861.02 352.66 759.96 281.90 C 636.71 195.62 694.73 15.84 516.28 1.65 C 254.68 -19.15 281.36 161.59 120.80 245.74 C 18.59 299.30 0.01 404.11 0.00 473.21 C 0.03 510.40 30.20 540.51 67.38 540.49 Z" fill="#f3f5fd" fill-rule="nonzero" node-id="82" stroke="none" target-height="559.66003" target-width="866.05" target-x="0" target-y="-19.15"></path><g node-id="263"><path d="M 537.60 494.82 L 549.73 540.49 L 532.61 540.49 L 513.34 494.82 L 537.60 494.82 Z" fill="#dee8f5" fill-rule="nonzero" group-id="1" node-id="86" stroke="none" target-height="45.669983" target-width="36.389954" target-x="513.34" target-y="494.82"></path><path d="M 316.39 494.82 L 304.26 540.49 L 321.39 540.49 L 340.65 494.82 L 316.39 494.82 Z" fill="#dee8f5" fill-rule="nonzero" group-id="1" node-id="88" stroke="none" target-height="45.669983" target-width="36.389984" target-x="304.26" target-y="494.82"></path><g node-id="269"><path d="M 459.58 494.82 L 471.71 540.49 L 454.58 540.49 L 435.32 494.82 L 459.58 494.82 Z" fill="#c1d8ed" fill-rule="nonzero" group-id="1,7" node-id="92" stroke="none" target-height="45.669983" target-width="36.389984" target-x="435.32" target-y="494.82"></path><path d="M 238.37 494.82 L 226.24 540.49 L 243.36 540.49 L 262.63 494.82 L 238.37 494.82 Z" fill="#c1d8ed" fill-rule="nonzero" group-id="1,7" node-id="94" stroke="none" target-height="45.669983" target-width="36.39" target-x="226.24" target-y="494.82"></path></g><path d="M 220.20 429.03 L 440.89 429.03 L 425.92 266.23 C 425.18 258.16 418.41 251.98 410.30 251.98 L 221.12 251.98 C 216.71 251.98 212.51 253.84 209.53 257.10 C 206.56 260.35 205.10 264.71 205.50 269.10 Z" fill="#c1d8ed" fill-rule="nonzero" group-id="1" node-id="97" stroke="none" target-height="177.05" target-width="235.79001" target-x="205.1" target-y="251.98"></path><path d="M 566.18 502.96 L 416.15 502.96 L 416.15 352.93 L 566.18 352.93 Z" fill="#c1d8ed" fill-rule="nonzero" group-id="1,8" node-id="101" stroke="none" target-height="150.03" target-width="150.03" target-x="416.15" target-y="352.93"></path><path d="M 262.97 429.03 L 475.52 429.03 L 460.55 266.23 C 459.81 258.16 453.04 251.98 444.93 251.98 L 263.89 251.98 C 259.48 251.98 255.28 253.84 252.31 257.10 C 249.33 260.35 247.87 264.71 248.27 269.10 Z" fill="#dee8f5" fill-rule="nonzero" group-id="1" node-id="104" stroke="none" target-height="177.05" target-width="227.65" target-x="247.87" target-y="251.98"></path><path d="M 262.97 429.03 L 475.52 429.03 L 460.55 266.23 C 459.81 258.16 453.04 251.98 444.93 251.98 L 263.89 251.98 C 259.48 251.98 255.28 253.84 252.31 257.10 C 249.33 260.35 247.87 264.71 248.27 269.10 Z" fill="#c1d8ed" fill-opacity="0.48" fill-rule="nonzero" group-id="1,9" node-id="108" stroke="none" target-height="177.05" target-width="227.65" target-x="247.87" target-y="251.98"></path><path d="M 337.99 509.68 L 210.21 509.68 L 207.13 509.45 L 204.25 508.87 L 201.54 507.93 L 198.98 506.64 L 195.86 504.43 L 193.21 501.78 L 191.00 498.65 L 189.70 496.09 L 188.77 493.38 L 188.18 490.50 L 187.96 487.42 L 187.96 375.18 L 188.18 372.10 L 188.77 369.22 L 189.70 366.51 L 191.00 363.95 L 193.21 360.83 L 195.86 358.18 L 198.98 355.97 L 201.54 354.67 L 204.25 353.74 L 207.13 353.15 L 210.21 352.93 L 337.99 352.93 L 337.99 352.93 L 337.99 509.68 L 337.99 509.68 Z" fill="#c1d8ed" fill-rule="nonzero" group-id="1,10" node-id="113" stroke="none" target-height="156.75" target-width="150.02998" target-x="187.96" target-y="352.93"></path><path d="M 337.99 509.68 L 566.19 509.68 C 579.67 509.67 590.60 498.74 590.60 485.26 L 590.60 377.34 C 590.51 363.92 579.61 353.08 566.19 353.08 C 552.76 353.08 541.86 363.92 541.77 377.34 L 541.77 460.84 L 362.40 460.84 L 362.40 377.34 C 362.40 363.86 351.47 352.93 337.99 352.93 C 324.50 352.93 313.57 363.86 313.57 377.34 L 313.57 485.26 C 313.57 491.74 316.14 497.95 320.72 502.53 C 325.30 507.10 331.51 509.68 337.99 509.68 Z" fill="#dee8f5" fill-rule="nonzero" group-id="1" node-id="116" stroke="none" target-height="156.75" target-width="277.02997" target-x="313.57" target-y="352.93"></path><path d="M 554.55 464.88 L 362.07 464.88 L 362.07 464.88 L 362.07 412.65 L 362.07 412.65 L 554.55 412.65 L 557.40 412.92 L 560.01 413.63 L 562.43 414.78 L 564.62 416.34 L 566.47 418.19 L 568.02 420.38 L 569.18 422.80 L 569.89 425.41 L 570.15 428.25 L 570.15 449.28 L 569.89 452.12 L 569.18 454.73 L 568.02 457.15 L 566.47 459.34 L 564.62 461.20 L 562.43 462.75 L 560.01 463.90 L 557.40 464.61 L 554.55 464.88 Z" fill="#f3f5fd" fill-rule="nonzero" group-id="1,11" node-id="120" stroke="none" target-height="52.23001" target-width="208.08002" target-x="362.07" target-y="412.65"></path><path d="M 554.55 464.88 L 362.07 464.88 L 362.07 464.88 L 362.07 412.65 L 362.07 412.65 L 554.55 412.65 L 557.40 412.92 L 560.01 413.63 L 562.43 414.78 L 564.62 416.34 L 566.47 418.19 L 568.02 420.38 L 569.18 422.80 L 569.89 425.41 L 570.15 428.25 L 570.15 449.28 L 569.89 452.12 L 569.18 454.73 L 568.02 457.15 L 566.47 459.34 L 564.62 461.20 L 562.43 462.75 L 560.01 463.90 L 557.40 464.61 L 554.55 464.88 Z" fill="#c1d8ed" fill-opacity="0.15" fill-rule="nonzero" group-id="1,12,17" node-id="127" stroke="none" target-height="52.23001" target-width="208.08002" target-x="362.07" target-y="412.65"></path></g><path d="M 602.77 397.40 C 596.38 392.69 588.65 387.09 587.33 386.26 C 587.41 386.31 587.49 386.35 587.54 386.38 L 597.90 368.12 C 598.45 368.43 600.12 369.37 615.22 380.48 Z" fill="#eda59f" fill-rule="nonzero" node-id="132" stroke="none" target-height="29.279999" target-width="27.889954" target-x="587.33" target-y="368.12"></path><path d="M 637.09 363.47 C 637.65 362.48 637.77 361.29 637.42 360.21 C 637.07 359.12 636.28 358.23 635.25 357.74 L 635.25 357.74 C 633.80 357.06 632.09 357.29 630.87 358.31 L 611.69 375.54 C 610.94 376.21 610.52 377.18 610.55 378.19 C 610.92 382.27 609.97 386.35 607.85 389.85 C 606.08 392.50 603.60 394.61 600.70 395.93 C 600.14 396.14 599.75 396.66 599.71 397.26 C 599.67 397.86 599.97 398.43 600.50 398.72 L 610.90 404.62 C 611.52 404.97 612.25 405.06 612.93 404.87 C 613.62 404.68 614.20 404.22 614.55 403.60 Z" fill="#c1d8ed" fill-rule="nonzero" node-id="134" stroke="none" target-height="48" target-width="38.100037" target-x="599.67" target-y="357.06"></path><path d="M 416.03 323.41 C 412.34 323.41 408.92 321.48 407.02 318.31 L 372.81 261.20 L 390.82 250.40 L 421.88 302.24 L 481.59 300.51 L 482.20 321.50 L 416.34 323.41 C 416.23 323.41 416.13 323.41 416.03 323.41 Z" fill="#2f3235" fill-rule="nonzero" node-id="136" stroke="none" target-height="73.01001" target-width="109.390015" target-x="372.81" target-y="250.4"></path><path d="M 404.06 362.15 C 403.63 360.68 403.04 359.25 402.31 357.90 C 401.95 357.22 401.55 356.56 401.11 355.92 C 400.72 355.33 400.13 354.58 399.83 354.23 C 398.43 352.54 396.79 351.06 394.95 349.86 C 393.90 349.17 392.80 348.57 391.64 348.07 C 391.36 347.95 391.06 347.83 390.78 347.72 L 390.30 347.54 C 389.98 347.42 389.65 347.32 389.32 347.22 C 389.00 347.12 388.67 347.03 388.33 346.94 L 387.54 346.76 C 387.17 346.68 386.79 346.62 386.41 346.56 L 385.84 346.49 L 385.48 346.45 L 384.81 346.39 C 384.29 346.36 384.11 346.36 383.84 346.36 L 383.19 346.37 L 382.73 346.40 L 382.46 346.42 C 381.84 346.51 381.98 346.55 382.14 346.55 C 382.85 346.51 383.56 346.44 384.26 346.32 C 386.06 346.04 388.13 345.62 390.23 345.18 C 394.44 344.28 398.82 343.19 403.23 342.08 C 412.02 339.82 420.92 337.37 429.78 334.79 C 438.66 332.24 447.52 329.54 456.38 326.82 C 465.24 324.11 474.09 321.25 482.87 318.44 L 483.57 318.21 C 487.84 316.85 492.46 317.13 496.53 319.00 L 524.03 331.66 C 533.23 335.82 542.41 340.00 551.63 344.10 L 565.46 350.24 L 579.33 356.31 C 588.60 360.31 597.86 364.31 607.19 368.15 L 592.20 401.98 C 583.08 397.64 573.90 393.48 564.71 389.30 L 550.90 383.10 L 537.06 376.97 C 527.83 372.90 518.56 368.90 509.31 364.88 L 481.46 353.01 L 495.12 353.57 L 442.28 373.01 C 433.42 376.22 424.58 379.46 415.54 382.62 C 411.02 384.22 406.46 385.76 401.69 387.32 C 399.29 388.09 396.85 388.85 394.11 389.61 C 392.71 389.99 391.27 390.38 389.38 390.76 C 388.13 391.01 386.86 391.20 385.59 391.32 L 384.88 391.37 L 383.99 391.41 L 383.52 391.43 L 382.90 391.43 C 382.47 391.42 382.15 391.42 381.49 391.37 L 380.61 391.30 L 380.13 391.25 L 379.45 391.15 C 379.00 391.09 378.56 391.01 378.11 390.91 L 377.76 390.84 L 377.21 390.70 C 376.84 390.61 376.48 390.51 376.11 390.40 C 375.75 390.30 375.38 390.18 375.03 390.05 L 374.50 389.86 C 374.20 389.74 373.89 389.61 373.59 389.48 C 372.37 388.95 371.20 388.32 370.09 387.59 C 368.19 386.34 366.50 384.82 365.04 383.08 C 364.73 382.72 364.14 381.94 363.73 381.34 C 363.29 380.69 362.88 380.01 362.50 379.31 C 361.76 377.93 361.15 376.47 360.70 374.97 Z" fill="#55affc" fill-rule="nonzero" node-id="138" stroke="none" target-height="85.130005" target-width="246.48999" target-x="360.7" target-y="316.85"></path><path d="M 664.40 408.25 C 664.40 408.25 642.99 404.82 641.09 404.53 L 644.34 383.78 C 646.24 384.08 667.72 387.51 667.72 387.51 Z" fill="#eda59f" fill-rule="nonzero" node-id="140" stroke="none" target-height="24.470001" target-width="26.629944" target-x="641.09" target-y="383.78"></path><path d="M 326.93 352.20 L 325.38 378.38 C 325.01 384.46 327.19 390.42 331.40 394.83 C 335.60 399.24 341.45 401.70 347.54 401.63 L 409.46 400.90 L 403.01 356.90 Z" fill="#55affc" fill-rule="nonzero" node-id="142" stroke="none" target-height="49.5" target-width="84.44998" target-x="325.01" target-y="352.2"></path><path d="M 369.96 379.88 C 370.05 377.22 369.53 374.57 368.43 372.14 C 367.63 370.33 366.49 368.69 365.07 367.30 C 364.45 366.68 363.76 366.15 363.02 365.70 C 362.88 365.62 362.74 365.54 362.59 365.48 C 362.56 365.46 362.52 365.45 362.49 365.44 C 362.48 365.44 362.47 365.44 362.46 365.44 C 362.89 365.66 363.34 365.83 363.80 365.95 C 364.59 366.18 365.58 366.43 366.68 366.65 C 369.13 367.12 371.62 367.46 374.11 367.67 C 375.43 367.78 376.79 367.87 378.09 367.93 L 379.03 367.97 L 380.07 368.00 L 382.53 368.07 L 421.90 369.14 L 500.63 371.27 L 658.08 375.54 L 657.54 412.54 L 500.25 412.28 L 421.62 412.15 L 382.30 412.07 L 376.90 412.06 C 374.93 412.03 373.00 411.96 371.06 411.85 C 367.00 411.64 362.96 411.21 358.95 410.57 C 356.82 410.23 354.61 409.79 352.22 409.18 C 349.50 408.50 346.85 407.60 344.27 406.50 C 342.57 405.77 340.93 404.92 339.35 403.96 C 337.20 402.67 335.21 401.13 333.41 399.38 C 330.81 396.84 328.71 393.85 327.21 390.55 C 325.45 386.61 324.62 382.33 324.77 378.02 Z" fill="#55affc" fill-rule="nonzero" node-id="144" stroke="none" target-height="47.100006" target-width="333.46002" target-x="324.62" target-y="365.44"></path><path d="M 679.69 363.54 C 679.86 362.41 679.55 361.26 678.84 360.37 C 678.13 359.48 677.08 358.92 675.94 358.83 L 675.94 358.83 C 674.35 358.71 672.83 359.52 672.04 360.91 L 660.18 383.80 C 659.72 384.70 659.67 385.75 660.05 386.69 C 661.84 390.37 662.39 394.52 661.64 398.54 C 660.92 401.65 659.35 404.50 657.09 406.76 C 656.65 407.16 656.47 407.78 656.64 408.35 C 656.81 408.93 657.30 409.35 657.89 409.44 L 669.70 411.29 C 670.41 411.40 671.12 411.22 671.70 410.80 C 672.27 410.38 672.66 409.75 672.76 409.05 Z" fill="#c1d8ed" fill-rule="nonzero" node-id="146" stroke="none" target-height="52.690002" target-width="23.390015" target-x="656.47" target-y="358.71"></path><path d="M 409.30 354.89 C 406.47 365.00 325.47 380.26 322.06 363.64 C 319.88 353.05 328.00 342.43 325.12 321.62 C 322.24 300.81 299.41 276.88 312.85 259.12 C 316.75 253.96 324.16 249.96 333.68 248.63 C 335.17 254.09 368.91 249.43 368.41 243.95 C 369.70 243.79 370.70 243.67 371.33 243.62 C 404.39 240.48 395.13 279.88 398.62 307.40 C 402.69 339.61 412.22 344.47 409.30 354.89 Z" fill="#2f3235" fill-rule="nonzero" group-id="2" node-id="150" stroke="none" target-height="139.78001" target-width="112.81" target-x="299.41" target-y="240.48"></path><path d="M 281.88 276.47 L 277.67 287.54 C 277.67 287.54 261.22 286.90 253.27 274.02 C 250.64 269.75 255.42 266.69 256.96 267.49 C 262.07 270.10 267.95 275.09 272.88 275.07 C 271.36 273.42 269.42 271.03 270.14 270.34 C 272.04 268.52 281.88 276.47 281.88 276.47 Z" fill="#eda59f" fill-rule="nonzero" group-id="2" node-id="152" stroke="none" target-height="20.850006" target-width="31.240005" target-x="250.64" target-y="266.69"></path><path d="M 368.41 243.95 C 368.91 249.44 367.05 257.86 358.00 259.73 C 345.92 262.22 335.17 254.09 333.68 248.63 L 333.71 248.63 C 345.71 246.97 361.40 244.81 368.41 243.95 Z" fill="#eda59f" fill-rule="nonzero" group-id="2" node-id="154" stroke="none" target-height="18.270004" target-width="35.23001" target-x="333.68" target-y="243.95"></path><path d="M 307.84 347.79 C 303.98 347.79 300.41 345.75 298.45 342.43 L 265.06 285.80 L 283.85 274.73 L 302.20 305.84 L 308.75 268.28 L 330.24 272.03 L 318.59 338.76 C 317.68 343.98 313.14 347.79 307.85 347.79 Z" fill="#2f3235" fill-rule="nonzero" group-id="2" node-id="156" stroke="none" target-height="79.51001" target-width="65.17999" target-x="265.06" target-y="268.28"></path><path d="M 336.43 252.04 C 336.43 252.04 343.84 247.39 340.60 226.52 L 356.32 222.41 C 356.32 222.41 355.89 241.37 364.39 246.76 Z" fill="#eda59f" fill-rule="nonzero" group-id="2,13" node-id="160" stroke="none" target-height="29.62999" target-width="27.960022" target-x="336.43" target-y="222.41"></path><path d="M 360.84 243.06 L 346.86 233.89 L 357.25 233.03 C 357.81 236.57 359.03 239.97 360.84 243.06 Z" fill="#000000" fill-opacity="0.15" fill-rule="nonzero" group-id="2,13,18" node-id="164" stroke="none" target-height="10.029999" target-width="13.980011" target-x="346.86" target-y="233.03"></path><path d="M 330.96 219.03 C 332.53 225.32 336.44 231.10 342.21 232.75 C 349.06 234.71 354.01 234.52 361.71 233.96 C 372.21 233.20 371.07 222.28 370.56 211.22 C 370.06 200.12 368.31 188.31 363.88 184.75 C 355.05 177.65 331.09 184.29 329.07 197.39 C 328.02 204.16 329.47 213.04 330.96 219.03 Z" fill="#eda59f" fill-rule="nonzero" group-id="2,13" node-id="167" stroke="none" target-height="57.060013" target-width="44.190002" target-x="328.02" target-y="177.65"></path><path d="M 375.09 183.81 C 372.87 177.50 367.17 174.75 358.29 177.77 C 351.98 179.92 351.05 178.47 345.41 176.24 C 342.18 174.96 331.99 176.39 329.96 183.51 C 327.78 191.13 318.94 185.73 319.03 197.88 C 319.11 208.06 322.03 221.07 333.92 229.10 L 333.92 229.10 C 335.85 230.77 338.00 232.17 340.31 233.24 C 341.31 233.74 341.50 233.26 341.76 232.18 C 342.66 228.35 344.08 215.08 342.33 204.49 C 342.05 202.75 342.18 200.00 346.66 199.49 C 351.56 198.92 364.40 199.10 368.68 195.54 C 368.68 195.54 377.32 190.12 375.09 183.81 Z" fill="#0f1011" fill-rule="nonzero" group-id="2,13" node-id="169" stroke="none" target-height="58.990005" target-width="58.380005" target-x="318.94" target-y="174.75"></path><path d="M 356.90 210.87 C 356.90 211.67 356.26 212.31 355.46 212.31 C 354.66 212.31 354.01 211.67 354.01 210.87 C 354.01 210.07 354.66 209.42 355.46 209.42 C 356.26 209.42 356.90 210.07 356.90 210.87 Z" fill="#0f1011" fill-rule="nonzero" group-id="2,13,19" node-id="173" stroke="none" target-height="2.8899994" target-width="2.8899841" target-x="354.01" target-y="209.42"></path><path d="M 368.24 209.10 C 368.24 209.90 367.59 210.55 366.79 210.55 C 365.99 210.55 365.34 209.90 365.34 209.10 C 365.34 208.30 365.99 207.66 366.79 207.66 C 367.59 207.66 368.24 208.30 368.24 209.10 Z" fill="#0f1011" fill-rule="nonzero" group-id="2,13,19" node-id="175" stroke="none" target-height="2.8899994" target-width="2.899994" target-x="365.34" target-y="207.66"></path><path d="M 365.19 206.07 C 364.82 206.07 364.53 205.78 364.52 205.41 C 364.51 205.05 364.79 204.74 365.15 204.71 L 368.98 204.48 C 369.35 204.47 369.67 204.75 369.70 205.12 C 369.72 205.50 369.44 205.82 369.06 205.84 L 365.23 206.07 Z" fill="#0f1011" fill-rule="nonzero" group-id="2,13,19" node-id="177" stroke="none" target-height="1.6000061" target-width="5.2099915" target-x="364.51" target-y="204.47"></path><path d="M 352.10 208.48 C 351.77 208.47 351.48 208.23 351.43 207.90 C 351.38 207.57 351.57 207.25 351.89 207.15 L 355.60 205.96 C 355.96 205.85 356.34 206.05 356.46 206.41 C 356.57 206.77 356.37 207.15 356.02 207.26 L 352.31 208.45 C 352.24 208.47 352.17 208.48 352.10 208.48 Z" fill="#0f1011" fill-rule="nonzero" group-id="2,13,19" node-id="179" stroke="none" target-height="2.6299896" target-width="5.1900024" target-x="351.38" target-y="205.85"></path><path d="M 348.20 214.95 C 348.55 217.12 347.70 219.31 345.99 220.69 C 344.28 222.07 341.96 222.43 339.91 221.64 C 337.86 220.84 336.39 219.01 336.06 216.84 C 335.78 215.22 336.17 213.56 337.14 212.24 C 338.10 210.92 339.56 210.05 341.19 209.82 C 345.54 209.36 347.67 211.60 348.20 214.95 Z" fill="#eda59f" fill-rule="nonzero" group-id="2,13" node-id="182" stroke="none" target-height="13.069992" target-width="12.769989" target-x="335.78" target-y="209.36"></path><path d="M 362.45 218.42 C 362.21 218.44 361.98 218.27 361.93 218.03 C 361.87 217.79 362.00 217.54 362.24 217.45 L 365.11 216.34 L 362.72 211.91 C 362.59 211.66 362.68 211.36 362.92 211.23 C 363.17 211.10 363.47 211.19 363.60 211.43 L 366.26 216.36 C 366.32 216.49 366.34 216.63 366.29 216.77 C 366.24 216.90 366.13 217.01 366.00 217.06 L 362.60 218.38 C 362.55 218.40 362.50 218.41 362.45 218.42 Z" fill="#000000" fill-opacity="0.15" fill-rule="nonzero" group-id="2,13,20" node-id="186" stroke="none" target-height="7.3399963" target-width="4.470001" target-x="361.87" target-y="211.1"></path><path d="M 356.95 222.20 C 356.95 222.20 362.33 222.38 365.97 220.80 C 365.97 220.80 366.20 224.32 362.00 224.97 C 357.80 225.62 356.95 222.20 356.95 222.20 Z" fill="#ffffff" fill-rule="nonzero" group-id="2,13" node-id="189" stroke="none" target-height="4.819992" target-width="9.25" target-x="356.95" target-y="220.8"></path><path d="M 659.98 422.64 L 636.25 538.38 C 635.94 539.62 634.82 540.49 633.54 540.49 L 633.54 540.49 C 632.68 540.49 631.87 540.09 631.34 539.41 C 630.81 538.74 630.62 537.85 630.83 537.01 L 654.90 419.94 Z" fill="#c1d8ed" fill-rule="nonzero" group-id="3,14" node-id="197" stroke="none" target-height="120.54999" target-width="29.359985" target-x="630.62" target-y="419.94"></path><path d="M 715.74 422.45 L 739.47 538.19 C 739.78 539.43 740.90 540.31 742.18 540.31 L 742.18 540.31 C 743.04 540.31 743.85 539.91 744.38 539.23 C 744.91 538.55 745.10 537.67 744.89 536.83 L 720.82 419.75 Z" fill="#c1d8ed" fill-rule="nonzero" group-id="3,14" node-id="199" stroke="none" target-height="120.56" target-width="29.359985" target-x="715.74" target-y="419.75"></path><path d="M 635.04 411.32 L 740.68 411.32 C 743.35 411.32 745.51 413.48 745.51 416.15 L 745.51 426.80 C 745.51 429.47 743.35 431.63 740.68 431.63 L 635.04 431.63 C 632.37 431.63 630.21 429.47 630.21 426.80 L 630.21 416.15 C 630.21 413.48 632.37 411.32 635.04 411.32 Z" fill="#dee8f5" fill-rule="nonzero" group-id="3" node-id="202" stroke="none" target-height="20.309998" target-width="115.29999" target-x="630.21" target-y="411.32"></path><path d="M 474.80 266.29 L 462.66 317.26 C 462.28 318.87 462.65 320.56 463.67 321.86 C 464.70 323.16 466.26 323.91 467.91 323.91 L 539.50 323.91 C 541.93 323.91 544.06 322.29 544.71 319.94 L 558.70 268.97 C 559.14 267.35 558.80 265.61 557.78 264.27 C 556.76 262.93 555.18 262.15 553.49 262.14 L 480.06 262.14 C 477.56 262.14 475.38 263.86 474.80 266.29 Z" fill="#9ebcea" fill-rule="nonzero" group-id="4,15" node-id="209" stroke="none" target-height="61.76999" target-width="96.860016" target-x="462.28" target-y="262.14"></path><path d="M 437.18 323.91 L 523.70 323.91 C 525.45 323.91 526.87 322.49 526.87 320.74 L 526.87 320.74 C 526.87 318.99 525.45 317.57 523.70 317.57 L 437.18 317.57 C 435.43 317.57 434.01 318.99 434.01 320.74 L 434.01 320.74 C 434.01 322.49 435.43 323.91 437.18 323.91 Z" fill="#9ebcea" fill-rule="nonzero" group-id="4,15" node-id="211" stroke="none" target-height="6.3399963" target-width="92.859985" target-x="434.01" target-y="317.57"></path><path d="M 522.08 292.53 C 522.08 297.20 518.28 300.99 513.61 300.99 C 508.93 300.99 505.14 297.20 505.14 292.53 C 505.14 287.85 508.93 284.06 513.61 284.06 C 518.28 284.06 522.08 287.85 522.08 292.53 Z" fill="#ffffff" fill-rule="nonzero" group-id="4" node-id="214" stroke="none" target-height="16.929993" target-width="16.940002" target-x="505.14" target-y="284.06"></path><path d="M 154.71 456.65 C 149.71 455.02 144.58 456.85 139.67 460.59 C 146.14 444.26 148.81 429.51 137.75 428.84 C 130.01 428.38 124.09 434.31 119.59 442.75 C 118.00 427.92 113.92 416.85 104.77 420.52 C 94.72 424.55 93.19 438.35 94.72 452.79 C 90.29 445.42 85.53 441.30 81.20 445.63 C 68.29 458.54 99.98 494.93 99.98 494.93 L 107.85 494.93 L 112.35 499.81 C 111.44 501.73 110.94 502.87 110.94 502.87 L 116.64 514.49 C 116.64 514.49 175.46 463.45 154.71 456.65 Z" fill="#8ddbe0" fill-rule="nonzero" group-id="5" node-id="219" stroke="none" target-height="97.639984" target-width="107.170006" target-x="68.29" target-y="416.85"></path><path d="M 140.60 540.49 L 96.05 540.49 L 88.59 488.49 L 148.06 488.49 L 140.60 540.49 Z" fill="#c1d8ed" fill-rule="nonzero" group-id="5" node-id="221" stroke="none" target-height="52" target-width="59.47" target-x="88.59" target-y="488.49"></path><path d="M 362.40 460.85 L 362.40 377.35 C 362.40 363.86 351.47 352.93 337.99 352.93 C 324.50 352.93 313.57 363.86 313.57 377.35" fill="#dee8f5" fill-rule="nonzero" node-id="224" stroke="none" target-height="107.92001" target-width="48.829987" target-x="313.57" target-y="352.93"></path><path d="M 471.71 75.74 L 715.74 75.74 L 715.74 231.69 L 471.71 231.69 Z" fill="#dee8f5" fill-rule="nonzero" group-id="6" node-id="228" stroke="none" target-height="155.95001" target-width="244.03" target-x="471.71" target-y="75.74"></path><path d="M 471.71 51.35 L 715.74 51.35 L 715.74 75.74 L 471.71 75.74 Z" fill="#c1d8ed" fill-rule="nonzero" group-id="6" node-id="230" stroke="none" target-height="24.39" target-width="244.03" target-x="471.71" target-y="51.35"></path><path d="M 478.61 84.09 L 708.83 84.09 L 708.83 197.70 L 478.61 197.70 Z" fill="#ffffff" fill-rule="nonzero" group-id="6" node-id="232" stroke="none" target-height="113.61" target-width="230.22003" target-x="478.61" target-y="84.09"></path><path d="M 478.61 196.69 L 708.83 196.69 L 708.83 202.63 L 478.61 202.63 Z" fill="#c1d8ed" fill-rule="nonzero" group-id="6" node-id="234" stroke="none" target-height="5.9400024" target-width="230.22003" target-x="478.61" target-y="196.69"></path><path d="M 478.61 196.69 L 551.70 196.69 L 551.70 202.63 L 478.61 202.63 Z" fill="#fdb754" fill-rule="nonzero" group-id="6" node-id="236" stroke="none" target-height="5.9400024" target-width="73.09003" target-x="478.61" target-y="196.69"></path><path d="M 558.25 199.66 C 558.25 202.82 555.68 205.39 552.52 205.39 C 549.35 205.39 546.79 202.82 546.79 199.66 C 546.79 196.50 549.35 193.93 552.52 193.93 C 555.68 193.93 558.25 196.50 558.25 199.66 Z" fill="#fdb754" fill-rule="nonzero" group-id="6" node-id="238" stroke="none" target-height="11.460007" target-width="11.460022" target-x="546.79" target-y="193.93"></path><path d="M 521.72 210.65 L 532.02 210.65 L 532.02 220.95 L 521.72 220.95 Z" fill="#ffffff" fill-rule="nonzero" group-id="6" node-id="240" stroke="none" target-height="10.300003" target-width="10.300049" target-x="521.72" target-y="210.65"></path><path d="M 502.46 210.65 L 505.07 210.65 L 505.07 220.95 L 502.46 220.95 Z" fill="#ffffff" fill-rule="nonzero" group-id="6,16" node-id="244" stroke="none" target-height="10.300003" target-width="2.6100159" target-x="502.46" target-y="210.65"></path><path d="M 509.46 210.65 L 512.08 210.65 L 512.08 220.95 L 509.46 220.95 Z" fill="#ffffff" fill-rule="nonzero" group-id="6,16" node-id="246" stroke="none" target-height="10.300003" target-width="2.6200256" target-x="509.46" target-y="210.65"></path><path d="M 485.18 221.82 L 494.37 215.80 L 485.18 209.77 L 485.18 221.82 Z" fill="#ffffff" fill-rule="nonzero" group-id="6" node-id="249" stroke="none" target-height="12.050003" target-width="9.190002" target-x="485.18" target-y="209.77"></path><path d="M 627.96 140.89 C 627.96 159.80 612.63 175.13 593.72 175.13 C 574.81 175.13 559.48 159.80 559.48 140.89 C 559.48 121.98 574.81 106.65 593.72 106.65 C 612.63 106.65 627.96 121.98 627.96 140.89 Z" fill="#c1d8ed" fill-rule="nonzero" group-id="6" node-id="251" stroke="none" target-height="68.48" target-width="68.48004" target-x="559.48" target-y="106.65"></path><path d="M 582.32 162.41 L 615.13 140.89 L 582.32 119.38 L 582.32 162.41 Z" fill="#ffffff" fill-rule="nonzero" group-id="6" node-id="253" stroke="none" target-height="43.030006" target-width="32.809998" target-x="582.32" target-y="119.38"></path><path d="M 593.72 216.60 C 593.72 217.01 593.56 217.41 593.27 217.70 C 592.98 217.99 592.58 218.16 592.17 218.16 L 565.21 218.16 L 565.21 215.04 L 592.17 215.04 C 592.58 215.04 592.98 215.21 593.27 215.50 C 593.56 215.79 593.72 216.19 593.72 216.60 Z" fill="#c1d8ed" fill-rule="nonzero" group-id="6" node-id="255" stroke="none" target-height="3.1200104" target-width="28.509949" target-x="565.21" target-y="215.04"></path><path d="M 565.21 215.04 L 565.21 218.16 L 548.35 218.16 C 547.49 218.16 546.79 217.46 546.79 216.60 C 546.79 215.73 547.49 215.04 548.35 215.04 Z" fill="#ffffff" fill-rule="nonzero" group-id="6" node-id="257" stroke="none" target-height="3.1200104" target-width="18.420044" target-x="546.79" target-y="215.04"></path><path d="M 569.39 216.59 C 569.39 218.90 567.52 220.77 565.21 220.77 C 562.90 220.77 561.03 218.90 561.03 216.59 C 561.03 214.29 562.90 212.42 565.21 212.42 C 567.52 212.42 569.39 214.29 569.39 216.59 Z" fill="#ffffff" fill-rule="nonzero" group-id="6" node-id="259" stroke="none" target-height="8.350006" target-width="8.359985" target-x="561.03" target-y="212.42"></path><path d="M 708.09 63.55 C 708.09 66.93 705.35 69.67 701.96 69.67 C 698.58 69.67 695.83 66.93 695.83 63.55 C 695.83 60.16 698.58 57.41 701.96 57.41 C 705.35 57.41 708.09 60.16 708.09 63.55 Z" fill="#ffffff" fill-rule="nonzero" group-id="6" node-id="261" stroke="none" target-height="12.259998" target-width="12.26001" target-x="695.83" target-y="57.41"></path></svg>